<?xml version="1.0" encoding="utf-8"?>
<!-- Generator: Adobe Illustrator 24.1.1, SVG Export Plug-In . SVG Version: 6.00 Build 0)  -->
<svg version="1.1" id="Layer_1" xmlns="http://www.w3.org/2000/svg" xmlns:xlink="http://www.w3.org/1999/xlink" x="0px" y="0px"
	 viewBox="0 0 512 512" style="enable-background:new 0 0 512 512;" xml:space="preserve">
<style type="text/css">
	.st0{fill:#333333;}
</style>
<g id="XMLID_2_">
	<path id="XMLID_8_" class="st0" d="M256,219.3c45.2,0,87-4.3,126.3-11.9c39.3-8.5,70-20.5,93-36.7v48.6c0,12.8-9.4,25.6-29,36.7
		c-19.6,11.1-46.1,20.5-80.2,26.5c-34.1,6-70,10.2-110.1,10.2s-75.9-3.4-110.1-10.2S85.3,267.1,65.7,256s-29-23-29-36.7v-48.6
		c23,16.2,53.8,28.2,93,36.7C169,215,210.8,219.3,256,219.3z M256,438.6c45.2,0,87-4.3,126.3-11.9c39.3-8.5,70-20.5,93-36.7v48.6
		c0,12.8-9.4,25.6-29,36.7c-19.6,11.1-46.1,20.5-80.2,26.5c-34.1,6-70.8,10.2-110.1,10.2c-39.3,0-75.9-3.4-110.1-10.2
		c-34.1-6.8-60.6-15.4-80.2-26.5s-29-23-29-36.7V390c23,16.2,53.8,28.2,93,36.7C169,434.3,210.8,438.6,256,438.6z M256,329.4
		c45.2,0,87-4.3,126.3-11.9s70-20.5,93-36.7v48.6c0,12.8-9.4,25.6-29,36.7c-19.6,11.1-46.1,20.5-80.2,26.5
		c-34.1,6.8-70,10.2-110.1,10.2s-75.9-3.4-110.1-10.2s-60.6-15.4-80.2-26.5s-29-23-29-36.7v-48.6c23,16.2,53.8,28.2,93,36.7
		S210.8,329.4,256,329.4z M256,0c39.3,0,75.9,3.4,110.1,10.2c34.1,6.8,60.6,15.4,80.2,26.5c19.6,11.1,29,23,29,36.7v36.7
		c0,12.8-9.4,25.6-29,36.7c-19.6,11.1-46.1,20.5-80.2,26.5c-34.1,6-70,10.2-110.1,10.2s-75.9-3.4-110.1-10.2s-60.6-15.4-80.2-26.5
		c-19.6-11.1-29-23-29-36.7V73.4c0-12.8,9.4-25.6,29-36.7s46.1-20.5,80.2-26.5C180.1,3.4,216.7,0,256,0z"/>
</g>
</svg>
